<svg width="32" height="33" viewBox="0 0 32 33" fill="none" xmlns="http://www.w3.org/2000/svg">
<g filter="url(#filter0_d)">
<path d="M16.0005 0C12.7387 0 12.3322 0.0164063 11.0557 0.0726563C9.77395 0.138281 8.90695 0.345313 8.14195 0.654688C7.3413 0.969547 6.6162 1.46251 6.0172 2.09922C5.40426 2.72172 4.93075 3.47745 4.63045 4.3125C4.33345 5.10938 4.1347 6.0125 4.0717 7.34766C4.01395 8.67812 4.00195 9.10078 4.00195 12.4984C4.00195 15.8961 4.0177 16.3195 4.0717 17.6492C4.1347 18.9805 4.33345 19.8875 4.63045 20.6844C4.93272 21.5184 5.40596 22.2737 6.0172 22.8977C6.6148 23.5361 7.3403 24.0294 8.14195 24.3422C8.90695 24.6477 9.7777 24.8586 11.0557 24.9242C12.333 24.9844 12.7387 24.9969 16.0005 24.9969C19.2622 24.9969 19.6687 24.9805 20.9452 24.9242C22.2232 24.8586 23.094 24.6469 23.859 24.3422C24.6596 24.0273 25.3847 23.5344 25.9837 22.8977C26.5974 22.2758 27.0711 21.5199 27.3705 20.6844C27.6637 19.8875 27.8662 18.9805 27.9292 17.6492C27.987 16.3188 27.999 15.8961 27.999 12.4984C27.999 9.10078 27.9832 8.67734 27.9292 7.34766C27.8662 6.01641 27.663 5.10469 27.3705 4.3125C27.0682 3.47849 26.5949 2.72317 25.9837 2.09922C25.3868 1.45991 24.6611 0.966547 23.859 0.654688C23.094 0.345313 22.2232 0.138281 20.9452 0.0726563C19.668 0.0125 19.2622 0 16.0005 0ZM16.0005 2.25C19.2037 2.25 19.5862 2.26641 20.8522 2.32266C22.02 2.37969 22.656 2.58281 23.0782 2.75469C23.6002 2.95541 24.0727 3.27488 24.4612 3.68984C24.8589 4.09283 25.1644 4.58387 25.3552 5.12656C25.5202 5.56641 25.7152 6.22891 25.77 7.44531C25.824 8.76406 25.8397 9.16328 25.8397 12.4992C25.8397 15.8352 25.824 16.2344 25.7655 17.5531C25.7025 18.7695 25.5075 19.432 25.3432 19.8719C25.116 20.4586 24.8625 20.8687 24.444 21.3125C24.0541 21.7249 23.582 22.0428 23.061 22.2437C22.644 22.4156 21.999 22.6187 20.8267 22.6758C19.554 22.732 19.179 22.7484 15.9675 22.7484C12.756 22.7484 12.3817 22.732 11.1075 22.6711C9.9397 22.6055 9.29545 22.4023 8.8732 22.2312C8.3032 21.9945 7.91245 21.7305 7.49395 21.2945C7.0717 20.8547 6.8032 20.4359 6.5962 19.8539C6.4282 19.4195 6.2362 18.7477 6.17395 17.5266C6.1312 16.2164 6.11095 15.8102 6.11095 12.4805C6.11095 9.15234 6.1312 8.74531 6.17395 7.41875C6.2362 6.19766 6.4282 5.52734 6.5962 5.09141C6.8032 4.49688 7.07245 4.09062 7.49395 3.65078C7.9117 3.21562 8.3032 2.93438 8.8732 2.71406C9.29545 2.54297 9.92395 2.33984 11.0962 2.27891C12.369 2.23125 12.744 2.21406 15.951 2.21406L16.0005 2.25ZM16.0005 6.08359C15.1915 6.08329 14.3903 6.24904 13.6429 6.57139C12.8954 6.89373 12.2162 7.36635 11.6442 7.96223C11.0721 8.55811 10.6184 9.26557 10.309 10.0442C9.99953 10.8228 9.84041 11.6573 9.8407 12.5C9.84041 13.3427 9.99953 14.1772 10.309 14.9558C10.6184 15.7344 11.0721 16.4419 11.6442 17.0378C12.2162 17.6337 12.8954 18.1063 13.6429 18.4286C14.3903 18.751 15.1915 18.9167 16.0005 18.9164C16.8094 18.9167 17.6106 18.751 18.358 18.4286C19.1055 18.1063 19.7847 17.6337 20.3567 17.0378C20.9288 16.4419 21.3825 15.7344 21.6919 14.9558C22.0014 14.1772 22.1605 13.3427 22.1602 12.5C22.1605 11.6573 22.0014 10.8228 21.6919 10.0442C21.3825 9.26557 20.9288 8.55811 20.3567 7.96223C19.7847 7.36635 19.1055 6.89373 18.358 6.57139C17.6106 6.24904 16.8094 6.08329 16.0005 6.08359ZM16.0005 16.6664C13.7895 16.6664 12.0007 14.8031 12.0007 12.5C12.0007 10.1969 13.7895 8.33359 16.0005 8.33359C18.2115 8.33359 20.0002 10.1969 20.0002 12.5C20.0002 14.8031 18.2115 16.6664 16.0005 16.6664ZM23.8485 5.82734C23.8481 6.22552 23.6959 6.60724 23.4255 6.88865C23.1551 7.17006 22.7885 7.32813 22.4062 7.32812C22.2172 7.32812 22.03 7.28935 21.8554 7.214C21.6808 7.13866 21.5221 7.02823 21.3885 6.88901C21.2549 6.7498 21.1488 6.58453 21.0765 6.40263C21.0042 6.22074 20.967 6.02579 20.967 5.82891C20.967 5.63203 21.0042 5.43707 21.0765 5.25518C21.1488 5.07329 21.2549 4.90801 21.3885 4.7688C21.5221 4.62958 21.6808 4.51915 21.8554 4.44381C22.03 4.36847 22.2172 4.32969 22.4062 4.32969C23.199 4.32969 23.8485 5.00156 23.8485 5.82734Z" fill="#E5E5E5"/>
</g>
<defs>
<filter id="filter0_d" x="0" y="0" width="32" height="33" filterUnits="userSpaceOnUse" color-interpolation-filters="sRGB">
<feFlood flood-opacity="0" result="BackgroundImageFix"/>
<feColorMatrix in="SourceAlpha" type="matrix" values="0 0 0 0 0 0 0 0 0 0 0 0 0 0 0 0 0 0 127 0"/>
<feOffset dy="4"/>
<feGaussianBlur stdDeviation="2"/>
<feColorMatrix type="matrix" values="0 0 0 0 0 0 0 0 0 0 0 0 0 0 0 0 0 0 0.25 0"/>
<feBlend mode="normal" in2="BackgroundImageFix" result="effect1_dropShadow"/>
<feBlend mode="normal" in="SourceGraphic" in2="effect1_dropShadow" result="shape"/>
</filter>
</defs>
</svg>
