<svg width="96" height="72" viewBox="0 0 96 72" fill="none" xmlns="http://www.w3.org/2000/svg">
<path fill-rule="evenodd" clip-rule="evenodd" d="M29.2091 69.2161C29.1379 69.0895 29.0745 68.9585 29.0193 68.8241C28.636 67.9324 28.5179 66.9482 28.6796 65.9905H5.9973L39.7053 6.36088L50.7715 25.9159L53.9804 20.2083L44.3339 3.12503C44.0639 2.63271 42.4346 0 39.6254 0C38.356 0 36.5366 0.552628 35.0572 3.16536L0.909306 63.5183C0.619431 64.0408 -0.790194 66.7843 0.609306 69.2161C1.24906 70.3214 2.60881 71.6377 5.60768 71.6377H34.2074C31.2284 71.6377 29.8488 70.3414 29.2091 69.2161Z" fill="#01C58E"/>
<path fill-rule="evenodd" clip-rule="evenodd" d="M94.9657 63.5183L66.906 13.827C66.6161 13.3045 64.9965 10.6616 62.1772 10.6616C60.9078 10.6616 59.0887 11.2044 57.609 13.8168L53.9805 20.2082L57.2092 25.9154L62.2076 17.0229L89.9677 65.9904H79.4115C79.5465 66.7998 79.4707 67.6306 79.1914 68.4022C79.1326 68.5725 79.0591 68.7372 78.9716 68.8945L78.8816 69.0755C77.4622 71.5069 74.3929 71.6377 73.7936 71.6377H90.3075C90.9172 71.6377 93.9761 71.5073 95.3959 69.0755C96.0259 67.9698 96.4755 66.111 94.9657 63.5183Z" fill="#108775"/>
<path fill-rule="evenodd" clip-rule="evenodd" d="M78.8807 69.0753L78.9707 68.8943C79.0581 68.7368 79.132 68.572 79.1905 68.402C79.4699 67.6304 79.5456 66.7999 79.4106 65.9902C79.255 65.1171 78.9433 64.2795 78.4908 63.5181L57.2282 25.9156L53.9796 20.208L50.7509 25.9152L29.4981 63.5181C29.0856 64.2886 28.8084 65.1249 28.6787 65.9902C28.5077 66.945 28.6153 67.9292 28.9885 68.8238C29.0436 68.9584 29.107 69.0892 29.1782 69.2159C29.818 70.3211 31.1777 71.6375 34.1766 71.6375H73.7627C74.3924 71.6375 77.4614 71.5071 78.8807 69.0753ZM53.9796 31.6232L73.4129 65.9902H34.5565L53.9796 31.6232Z" fill="#2F495E"/>
</svg>
